<mxfile host="Electron" agent="Mozilla/5.0 (Windows NT 10.0; Win64; x64) AppleWebKit/537.36 (KHTML, like Gecko) draw.io/26.0.4 Chrome/128.0.6613.186 Electron/32.2.5 Safari/537.36" version="26.0.4">
  <diagram name="Sida-1" id="NA_YtuprwYCw-rkcSpkU">
    <mxGraphModel dx="1274" dy="604" grid="1" gridSize="10" guides="1" tooltips="1" connect="1" arrows="1" fold="1" page="1" pageScale="1" pageWidth="827" pageHeight="1169" math="0" shadow="0">
      <root>
        <mxCell id="0" />
        <mxCell id="1" parent="0" />
        <mxCell id="CnXP02CNKD1ibiMONJsi-2" value="" style="rounded=1;whiteSpace=wrap;html=1;" vertex="1" parent="1">
          <mxGeometry x="30" y="200" width="60" height="60" as="geometry" />
        </mxCell>
        <mxCell id="CnXP02CNKD1ibiMONJsi-3" value="" style="rounded=1;whiteSpace=wrap;html=1;" vertex="1" parent="1">
          <mxGeometry x="110" y="200" width="60" height="60" as="geometry" />
        </mxCell>
        <mxCell id="CnXP02CNKD1ibiMONJsi-7" value="" style="rounded=1;whiteSpace=wrap;html=1;" vertex="1" parent="1">
          <mxGeometry x="30" y="300" width="290" height="200" as="geometry" />
        </mxCell>
        <mxCell id="CnXP02CNKD1ibiMONJsi-8" value="" style="rounded=1;whiteSpace=wrap;html=1;" vertex="1" parent="1">
          <mxGeometry x="40" y="530" width="290" height="200" as="geometry" />
        </mxCell>
        <mxCell id="CnXP02CNKD1ibiMONJsi-9" value="" style="rounded=1;whiteSpace=wrap;html=1;" vertex="1" parent="1">
          <mxGeometry x="190" y="200" width="60" height="60" as="geometry" />
        </mxCell>
        <mxCell id="CnXP02CNKD1ibiMONJsi-10" value="" style="rounded=1;whiteSpace=wrap;html=1;" vertex="1" parent="1">
          <mxGeometry x="270" y="200" width="60" height="60" as="geometry" />
        </mxCell>
      </root>
    </mxGraphModel>
  </diagram>
</mxfile>
